<svg width="24" height="24" xmlns="http://www.w3.org/2000/svg">

 <g>
  <title>background</title>
  <rect fill="none" id="canvas_background" height="402" width="582" y="-1" x="-1"/>
 </g>
 <g>
  <title>Layer 1</title>
  <path transform="rotate(180 12,12) " id="svg_1" d="m19,3c1.11,0 2,0.9 2,2l0,3l-2,0l0,-3l-14,0l0,14l14,0l0,-3l2,0l0,3c0,1.1 -0.89,2 -2,2l-14,0c-1.1,0 -2,-0.9 -2,-2l0,-14c0,-1.1 0.9,-2 2,-2l14,0zm-3.5,14l5,-5l-5,-5l-1.41,1.41l2.58,2.59l-9.67,0l0,2l9.67,0l-2.58,2.59l1.41,1.41z"/>
 </g>
</svg>